<svg width="433" height="433" viewBox="0 0 433 433" fill="none" xmlns="http://www.w3.org/2000/svg">
<g clip-path="url(#clip0_1031_988)">
<path d="M157.869 117.09C174.177 145.663 197.316 171.315 226.691 191.384L227.843 192.166C253.077 209.188 280.411 220.459 308.166 226.257C275.548 239.795 236.975 237.221 205.507 215.995C171.791 193.254 154.872 154.932 157.869 117.09ZM327.206 35.5687C377.029 69.175 390.176 136.809 356.57 186.632C353.123 191.741 349.318 196.464 345.213 200.791C311.06 199.399 276.158 188.573 244.616 167.298C208.843 143.169 183.911 109.998 170.698 73.8975C172.353 70.8549 174.166 67.8624 176.142 64.9325C209.749 15.109 277.382 1.96229 327.206 35.5687Z" fill="#D9D9D9"/>
<path d="M149.971 398.649L149.921 398.616C137.794 414.063 111.005 414.762 88.8637 399.827C66.722 384.892 57.335 359.793 67.1146 342.762L67.0417 342.713L135.984 189.949C146.794 211.967 163.332 231.544 185.125 246.244C211.758 264.207 242.201 272.165 272.015 270.984L149.971 398.649ZM161.543 261.207L118.183 325.491L146.36 344.497L189.72 280.213L161.543 261.207Z" fill="#D9D9D9"/>
</g>
<defs>
<clipPath id="clip0_1031_988">
<rect width="433" height="433" fill="white"/>
</clipPath>
</defs>
</svg>
