<svg width="100" height="100" viewBox="0 0 100 100" fill="none" xmlns="http://www.w3.org/2000/svg">
<path d="M92.9619 44.6602C95.9076 44.6602 98.2959 47.0484 98.2959 49.9941C98.2959 76.5057 76.8035 97.9971 50.292 97.9971C23.7806 97.9969 2.28909 76.5055 2.28906 49.9941C2.28906 47.0484 4.67732 44.6602 7.62305 44.6602C10.5686 44.6604 12.9561 47.0485 12.9561 49.9941C12.9561 70.6141 29.6721 87.3299 50.292 87.3301C70.9121 87.3301 87.6279 70.6142 87.6279 49.9941C87.6279 47.0485 90.0162 44.6602 92.9619 44.6602ZM50.2949 2C66.2959 2.00043 76.9678 32.8203 76.9678 47.5488C76.9677 62.2773 65.0234 76.6717 50.2949 76.6719C35.5663 76.6719 23.631 62.2774 23.6309 47.5488C23.6309 32.8202 34.2938 2 50.2949 2Z" fill="white" fill-opacity="0.9"/>
</svg>
